# xmcd CD database file
# Copyright (C) 1997 Ti Kan
# 
# Track frame offsets:
#     183
#     15508
#     28033
#     39333
#     54583
#     66083
#     78158
#     90358
#     118358
#     133533
#     144008
#     154583
#     167408
#     181633
#     193883
#     205533
#     219833
#     230558
#     243108
#     255158
#     278358
#     298133
#     311308
#     324908
# 
# Disc length: 4498 seconds
# 
# Revision: 1
# Processed by: cddbd v1.4b41PL1 Copyright (c) Steve Scherf et al.
# Submitted via: DiscPlay 4.0.3
# 
DISCID=29119018
DTITLE=Howlin' Wolf - The Howlin' Wolf Story
DYEAR=1900
DGENRE=
TTITLE0=Do The Do
TTITLE1=Ain't Superstitious
TTITLE2=My Country Sugar Mama
TTITLE3=Killing Floor
TTITLE4=Morning At Midnight
TTITLE5=Passing By Blues
TTITLE6=Cause Of It All
TTITLE7=Going Down Slow
TTITLE8=Commit A Crime
TTITLE9=Somebody Walkin' In My House
TTITLE10=Built For Comfort
TTITLE11=I Want Your Picture
TTITLE12=I Walked From Dallas
TTITLE13=Streamline Woman
TTITLE14=Louise
TTITLE15=Ridin' In The Moonlight
TTITLE16=Hold On To Your Money
TTITLE17=My Mind Is Ramblin'
TTITLE18=The Sun Is Rising
TTITLE19=I Didn't Mean To Hurt Your Feelings
TTITLE20=Howlin' For My Darlin'
TTITLE21=Worried About You, Baby
TTITLE22=Highway 49
TTITLE23=Chocolate Drop
EXTD=
EXTT0=
EXTT1=
EXTT2=
EXTT3=
EXTT4=
EXTT5=
EXTT6=
EXTT7=
EXTT8=
EXTT9=
EXTT10=
EXTT11=
EXTT12=
EXTT13=
EXTT14=
EXTT15=
EXTT16=
EXTT17=
EXTT18=
EXTT19=
EXTT20=
EXTT21=
EXTT22=
EXTT23=
PLAYORDER=
